<?xml version="1.0" encoding="UTF-8"?>
<svg width="1024" height="320" viewBox="0 0 1024 320" fill="none" xmlns="http://www.w3.org/2000/svg">
  <defs>
    <linearGradient id="g" x1="0" y1="0" x2="1" y2="1">
      <stop offset="0" stop-color="#1EA463"/>
      <stop offset="1" stop-color="#0E6B42"/>
    </linearGradient>
    <style>
      .title { font: 700 88px/1.1 'Inter', system-ui, -apple-system, Segoe UI, Roboto, 'Helvetica Neue', Arial, 'Noto Sans', 'Liberation Sans', sans-serif; letter-spacing: 2px; }
      .sub   { font: 500 28px/1.2 'Inter', system-ui, -apple-system, Segoe UI, Roboto, 'Helvetica Neue', Arial, 'Noto Sans', 'Liberation Sans', sans-serif; letter-spacing: 3px; }
    </style>
  </defs>
  <rect width="1024" height="320" fill="#063116"/>
  <!-- icon left -->
  <g transform="translate(40,40)">
    <g stroke="url(#g)" stroke-width="12" fill="none" stroke-linecap="round" stroke-linejoin="round">
      <rect x="0" y="0" width="160" height="160" rx="20"/>
      <path d="M0 0h28a16 16 0 0 1 16 16v12"/>
      <path d="M160 160h-28a16 16 0 0 1-16-16v-12"/>
    </g>
    <g transform="translate(80,86)">
      <path d="M0 -8 C 0 24 0 24 -12 36" stroke="url(#g)" stroke-width="12" fill="none" stroke-linecap="round"/>
      <path d="M-10 -8 C -46 -14 -56 -46 -28 -60 C -2 -70 6 -28 -10 -8 Z" fill="url(#g)"/>
      <path d="M10 -8 C 46 -14 56 -46 28 -60 C 2 -70 -6 -28 10 -8 Z" fill="url(#g)"/>
      <circle cx="0" cy="-10" r="6" fill="url(#g)"/>
    </g>
  </g>
  <!-- wordmark -->
  <g fill="url(#g)">
    <text class="title" x="230" y="120">GREENPRINT</text>
    <text class="sub" x="234" y="170" fill="#8cd9b5">START UP CONSULTING</text>
    <text class="sub" x="234" y="205" fill="#8cd9b5">BUSINESS SERVICES</text>
  </g>
</svg>
